<?xml version="1.0" encoding="UTF-8"?>
<!DOCTYPE svg PUBLIC "-//W3C//DTD SVG 1.1//EN" "http://www.w3.org/Graphics/SVG/1.1/DTD/svg11.dtd">
<svg xmlns="http://www.w3.org/2000/svg" version="1.1" width="281px" height="281px" style="shape-rendering:geometricPrecision; text-rendering:geometricPrecision; image-rendering:optimizeQuality; fill-rule:evenodd; clip-rule:evenodd" xmlns:xlink="http://www.w3.org/1999/xlink">
<g><path style="opacity:1" fill="#000000" d="M 129.5,-0.5 C 136.5,-0.5 143.5,-0.5 150.5,-0.5C 224.797,10.1298 268.13,52.4632 280.5,126.5C 280.5,135.5 280.5,144.5 280.5,153.5C 271.892,214.281 238.558,254.781 180.5,275C 171.451,277.309 162.451,279.143 153.5,280.5C 144.5,280.5 135.5,280.5 126.5,280.5C 65.721,271.894 25.221,238.561 5,180.5C 2.71871,171.449 0.885375,162.449 -0.5,153.5C -0.5,144.5 -0.5,135.5 -0.5,126.5C 8.20239,65.2938 41.8691,24.7938 100.5,5C 110.187,2.49982 119.854,0.666489 129.5,-0.5 Z M 132.5,12.5 C 133.5,12.5 134.5,12.5 135.5,12.5C 135.26,15.5788 135.593,18.5788 136.5,21.5C 138.396,22.4656 140.396,22.7989 142.5,22.5C 142.5,19.1667 142.5,15.8333 142.5,12.5C 143.5,12.5 144.5,12.5 145.5,12.5C 145.666,20.1739 145.5,27.8406 145,35.5C 144.333,36.8333 143.667,36.8333 143,35.5C 142.501,31.8484 142.335,28.1817 142.5,24.5C 140.5,24.5 138.5,24.5 136.5,24.5C 136.5,28.5 136.5,32.5 136.5,36.5C 135.5,36.5 134.5,36.5 133.5,36.5C 132.901,28.5136 132.568,20.5136 132.5,12.5 Z M 121.5,13.5 C 122.586,13.62 123.253,14.2867 123.5,15.5C 125.289,22.5471 126.289,29.5471 126.5,36.5C 125.914,36.2907 125.414,35.9574 125,35.5C 124.057,30.8397 123.223,26.1731 122.5,21.5C 121.5,21.5 120.5,21.5 119.5,21.5C 119.468,27.1886 119.134,32.8552 118.5,38.5C 116.833,38.5 115.167,38.5 113.5,38.5C 112.611,31.2213 111.277,24.0546 109.5,17C 110.253,15.513 111.086,15.3463 112,16.5C 113.051,21.4742 113.885,26.4742 114.5,31.5C 115.5,31.5 116.5,31.5 117.5,31.5C 117.76,25.828 118.093,20.1613 118.5,14.5C 119.791,14.7373 120.791,14.404 121.5,13.5 Z M 158.5,13.5 C 164.704,13.3703 167.371,16.3703 166.5,22.5C 165.5,22.5 164.5,22.5 163.5,22.5C 163.5,20.5 163.5,18.5 163.5,16.5C 161.533,16.2606 159.699,16.5939 158,17.5C 156.71,23.4465 155.877,29.4465 155.5,35.5C 157.5,35.5 159.5,35.5 161.5,35.5C 161.5,33.8333 161.5,32.1667 161.5,30.5C 162.5,30.5 163.5,30.5 164.5,30.5C 164.896,33.0444 164.229,35.2111 162.5,37C 159.833,37.6667 157.167,37.6667 154.5,37C 153.874,36.2496 153.374,35.4162 153,34.5C 153.005,29.1258 153.672,23.7925 155,18.5C 155.257,16.0935 156.424,14.4268 158.5,13.5 Z M 176.5,18.5 C 177.497,18.4701 178.164,18.9701 178.5,20C 177.313,22.7236 176.647,25.5569 176.5,28.5C 180.701,28.1494 183.701,25.9828 185.5,22C 186.5,21.3333 187.5,21.3333 188.5,22C 186.707,24.7953 184.54,27.2953 182,29.5C 181.508,34.5506 181.508,39.5506 182,44.5C 181,43.8333 180,43.1667 179,42.5C 178.667,38.8333 178.333,35.1667 178,31.5C 176.989,30.6634 175.822,30.33 174.5,30.5C 174.126,34.3022 172.793,37.6355 170.5,40.5C 170.167,39.8333 169.833,39.1667 169.5,38.5C 171.841,31.8105 174.174,25.1439 176.5,18.5 Z M 97.5,19.5 C 98.4959,19.4142 99.3292,19.7476 100,20.5C 102.696,26.9216 105.196,33.4216 107.5,40C 106.99,41.8261 106.156,41.9928 105,40.5C 103.864,37.9036 103.031,35.237 102.5,32.5C 100.5,32.5 98.5,32.5 96.5,32.5C 96.1824,36.6918 97.1824,40.5252 99.5,44C 98.5838,44.3742 97.7504,44.8742 97,45.5C 94.2645,38.46 91.4311,31.46 88.5,24.5C 88.8076,23.6919 89.3076,23.0253 90,22.5C 91.6876,25.2258 93.1876,28.0592 94.5,31C 97.5166,31.8218 99.1833,30.6551 99.5,27.5C 98.8246,24.8222 98.158,22.1555 97.5,19.5 Z M 196.5,41.5 C 194.539,43.9635 192.372,46.2968 190,48.5C 188.842,48.0019 188.009,47.1685 187.5,46C 190.78,39.2729 194.446,32.7729 198.5,26.5C 198.833,26.8333 199.167,27.1667 199.5,27.5C 196.904,32.013 194.904,36.6797 193.5,41.5C 194.5,41.5 195.5,41.5 196.5,41.5 Z M 77.5,28.5 C 82.5289,34.1802 86.8623,40.5135 90.5,47.5C 89.9984,48.521 89.3317,48.6877 88.5,48C 86.8333,45.6667 85.1667,43.3333 83.5,41C 80.7713,40.1985 79.1046,41.1985 78.5,44C 79.1602,47.1536 80.4935,49.9869 82.5,52.5C 82.1667,52.8333 81.8333,53.1667 81.5,53.5C 77.0046,47.4951 72.6712,41.3284 68.5,35C 69.0253,34.3076 69.6919,33.8076 70.5,33.5C 71.8333,35.5 73.1667,37.5 74.5,39.5C 76.0745,40.6309 77.7412,40.7975 79.5,40C 80.6092,36.174 79.6092,32.8407 76.5,30C 77.056,29.6174 77.3893,29.1174 77.5,28.5 Z M 197.5,40.5 C 199.962,37.5361 202.629,34.7028 205.5,32C 207.076,31.6124 208.409,32.1124 209.5,33.5C 206.158,40.1947 202.324,46.5281 198,52.5C 197.5,52.3333 197,52.1667 196.5,52C 199.472,48.2254 201.472,44.0588 202.5,39.5C 200.784,39.6287 199.117,39.962 197.5,40.5 Z M 224.5,35.5 C 225.598,36.6009 225.765,37.9343 225,39.5C 223.489,38.436 223.323,37.1026 224.5,35.5 Z M 218.5,39.5 C 219.525,39.8966 219.692,40.5632 219,41.5C 216.705,44.7974 214.038,47.7974 211,50.5C 210.517,51.448 210.351,52.448 210.5,53.5C 215.911,51.7923 220.911,49.1257 225.5,45.5C 226.646,46.1449 227.646,46.9783 228.5,48C 223.786,53.9256 218.953,59.7589 214,65.5C 213.5,65 213,64.5 212.5,64C 216.312,60.8467 218.979,57.0133 220.5,52.5C 215.47,53.6688 210.97,56.0022 207,59.5C 206.097,58.2986 204.931,57.4652 203.5,57C 208.71,51.2944 213.71,45.461 218.5,39.5 Z M 57.5,42.5 C 64.0897,46.7532 70.0897,51.7532 75.5,57.5C 73.8767,58.4756 72.5433,57.9756 71.5,56C 63.8837,55.809 62.5504,58.809 67.5,65C 67.1667,65.1667 66.8333,65.3333 66.5,65.5C 62.1846,60.2162 58.3512,54.5495 55,48.5C 54.3333,47.5 54.3333,46.5 55,45.5C 56.045,44.6266 56.8783,43.6266 57.5,42.5 Z M 125.5,46.5 C 127.604,46.2011 129.604,46.5344 131.5,47.5C 120.901,80.7973 110.401,114.131 100,147.5C 82.9335,151.48 65.7669,155.147 48.5,158.5C 41.7409,116.848 55.7409,84.0147 90.5,60C 101.634,53.7524 113.301,49.2524 125.5,46.5 Z M 148.5,46.5 C 193.291,53.2912 221.291,78.6245 232.5,122.5C 213.435,126.384 194.435,129.717 175.5,132.5C 166.496,103.821 157.496,75.1543 148.5,46.5 Z M 139.5,81.5 C 146.334,99.3243 153.001,117.324 159.5,135.5C 158.975,136.192 158.308,136.692 157.5,137C 144.186,140.164 130.852,142.331 117.5,143.5C 125.041,122.874 132.375,102.207 139.5,81.5 Z M 21.5,130.5 C 27.7221,131.057 31.3887,134.39 32.5,140.5C 28.5357,150.591 22.7024,151.925 15,144.5C 13.0808,138.002 15.2474,133.336 21.5,130.5 Z M 255.5,130.5 C 264.182,131.651 267.349,136.318 265,144.5C 257.298,151.925 251.464,150.591 247.5,140.5C 248.354,135.653 251.021,132.319 255.5,130.5 Z M 233.5,140.5 C 233.608,168.964 222.775,192.63 201,211.5C 193.605,191.48 187.105,171.147 181.5,150.5C 199.075,147.784 216.408,144.451 233.5,140.5 Z M 161.5,154.5 C 163.766,154.141 165.599,154.808 167,156.5C 174.401,177.538 181.901,198.538 189.5,219.5C 157.072,239.112 124.405,239.445 91.5,220.5C 90.4879,218.163 90.6546,215.83 92,213.5C 97.9751,197.238 104.142,181.072 110.5,165C 127.669,161.667 144.669,158.167 161.5,154.5 Z M 88.5,168.5 C 90.1992,168.34 91.8659,168.506 93.5,169C 89.136,183.259 84.4693,197.425 79.5,211.5C 67.3817,201.906 58.715,189.906 53.5,175.5C 65.3934,173.688 77.0601,171.355 88.5,168.5 Z M 73.5,221.5 C 76.4706,223.657 79.4706,225.824 82.5,228C 78.3668,234.433 73.8668,240.599 69,246.5C 68.5,246 68,245.5 67.5,245C 71,240.167 74.5,235.333 78,230.5C 79.1667,226.333 77.6667,224.833 73.5,226C 69.6667,231.167 65.8333,236.333 62,241.5C 61.5,241 61,240.5 60.5,240C 64.72,233.717 69.0533,227.55 73.5,221.5 Z M 215.5,242.5 C 214.156,244.168 212.823,245.835 211.5,247.5C 211.529,249.029 212.196,250.196 213.5,251C 212.747,252.487 211.914,252.654 211,251.5C 207.514,243.501 203.347,235.834 198.5,228.5C 200.458,225.375 203.124,223.541 206.5,223C 210.122,227.745 213.622,232.578 217,237.5C 219.59,238.45 221.59,240.116 223,242.5C 223.688,243.332 223.521,243.998 222.5,244.5C 220.49,242.829 218.157,242.162 215.5,242.5 Z M 87.5,231.5 C 88.4778,231.811 89.1445,232.478 89.5,233.5C 87.0046,237.147 85.6712,241.147 85.5,245.5C 86.552,245.649 87.552,245.483 88.5,245C 91.2161,241.739 94.0494,238.572 97,235.5C 98.2989,236.09 99.1322,237.09 99.5,238.5C 96.887,245.338 93.887,252.005 90.5,258.5C 90.1667,258 89.8333,257.5 89.5,257C 91.7421,253.108 93.0754,248.941 93.5,244.5C 92.448,244.351 91.448,244.517 90.5,245C 88.2046,248.297 85.538,251.297 82.5,254C 80.9242,254.388 79.5909,253.888 78.5,252.5C 81.7878,245.595 84.7878,238.595 87.5,231.5 Z M 188.5,232.5 C 190.09,232.628 191.423,233.295 192.5,234.5C 195.53,239.723 197.863,245.223 199.5,251C 199.415,252.107 199.081,253.107 198.5,254C 195.46,256.031 192.293,256.531 189,255.5C 186.013,250.035 183.513,244.369 181.5,238.5C 181.608,237.558 181.941,236.725 182.5,236C 184.727,235.059 186.727,233.892 188.5,232.5 Z M 106.5,240.5 C 110.059,240.408 113.392,241.241 116.5,243C 117.097,244.062 117.43,245.228 117.5,246.5C 115.238,251.354 113.905,256.52 113.5,262C 112.663,263.587 111.33,264.42 109.5,264.5C 106.456,263.822 103.456,262.989 100.5,262C 103.198,255.042 105.198,247.875 106.5,240.5 Z M 168.5,240.5 C 171.056,240.132 173.056,240.966 174.5,243C 175.09,248.701 176.757,254.034 179.5,259C 176.617,263.027 172.617,264.86 167.5,264.5C 166.152,257.774 164.485,251.108 162.5,244.5C 162.833,243.833 163.167,243.167 163.5,242.5C 165.336,241.972 167.003,241.306 168.5,240.5 Z M 127.5,243.5 C 136.642,243.98 138.975,248.313 134.5,256.5C 137.7,265.463 134.7,268.963 125.5,267C 122.211,265.041 121.877,262.875 124.5,260.5C 126.217,261.668 126.884,263.335 126.5,265.5C 128.5,265.5 130.5,265.5 132.5,265.5C 132.664,262.813 132.497,260.146 132,257.5C 126.073,256.019 126.24,254.685 132.5,253.5C 133.374,251.253 133.708,248.92 133.5,246.5C 131.5,246.5 129.5,246.5 127.5,246.5C 127.5,247.5 127.5,248.5 127.5,249.5C 126.5,249.5 125.5,249.5 124.5,249.5C 124.615,247.053 125.615,245.053 127.5,243.5 Z M 151.5,243.5 C 152.966,244.347 153.8,245.68 154,247.5C 155.264,253.724 156.764,259.891 158.5,266C 157.99,267.826 157.156,267.993 156,266.5C 155.187,264.564 154.687,262.564 154.5,260.5C 148.638,259.195 146.138,261.528 147,267.5C 145.513,268.741 144.68,268.241 144.5,266C 145.497,258.862 146.164,251.696 146.5,244.5C 148.415,244.784 150.081,244.451 151.5,243.5 Z"/></g>
<g><path style="opacity:1" fill="#000000" d="M 57.5,46.5 C 60.6889,47.5137 63.5222,49.1804 66,51.5C 66.4437,55.2294 64.9437,56.5627 61.5,55.5C 59.3923,52.8434 58.059,49.8434 57.5,46.5 Z"/></g>
<g><path style="opacity:1" fill="#000000" d="M 215.5,242.5 C 213.46,243.519 211.46,243.519 209.5,242.5C 207,238.167 204.5,233.833 202,229.5C 202.61,224.537 204.61,224.204 208,228.5C 210.333,231.833 212.667,235.167 215,238.5C 215.49,239.793 215.657,241.127 215.5,242.5 Z"/></g>
<g><path style="opacity:1" fill="#000000" d="M 185.5,235.5 C 187.467,235.261 189.301,235.594 191,236.5C 192.667,240.5 194.333,244.5 196,248.5C 197.16,253.152 195.327,255.152 190.5,254.5C 188.963,249.753 187.13,245.087 185,240.5C 184.36,238.735 184.527,237.068 185.5,235.5 Z"/></g>
<g><path style="opacity:1" fill="#000000" d="M 109.5,242.5 C 114.213,242.468 115.713,244.801 114,249.5C 112.246,251.25 110.079,251.917 107.5,251.5C 107.405,248.303 108.072,245.303 109.5,242.5 Z"/></g>
<g><path style="opacity:1" fill="#000000" d="M 166.5,242.5 C 168.467,242.261 170.301,242.594 172,243.5C 172.769,246.099 172.602,248.599 171.5,251C 169.888,251.72 168.388,251.554 167,250.5C 165.788,247.784 165.621,245.117 166.5,242.5 Z"/></g>
<g><path style="opacity:1" fill="#000000" d="M 148.5,246.5 C 149.5,246.5 150.5,246.5 151.5,246.5C 152.295,250.476 152.962,254.476 153.5,258.5C 151.833,258.5 150.167,258.5 148.5,258.5C 148.5,254.5 148.5,250.5 148.5,246.5 Z"/></g>
<g><path style="opacity:1" fill="#000000" d="M 106.5,252.5 C 112.824,253.119 114.158,256.119 110.5,261.5C 108.926,262.631 107.259,262.798 105.5,262C 104.941,261.275 104.608,260.442 104.5,259.5C 105.173,257.149 105.84,254.816 106.5,252.5 Z"/></g>
<g><path style="opacity:1" fill="#000000" d="M 169.5,252.5 C 171.288,252.215 172.955,252.548 174.5,253.5C 175.851,256.175 176.185,258.841 175.5,261.5C 173.629,262.767 171.796,262.767 170,261.5C 168.643,258.473 168.476,255.473 169.5,252.5 Z"/></g>
</svg>
