<?xml version="1.0" encoding="UTF-8"?>
<!DOCTYPE svg PUBLIC "-//W3C//DTD SVG 1.1//EN" "http://www.w3.org/Graphics/SVG/1.1/DTD/svg11.dtd">
<svg xmlns="http://www.w3.org/2000/svg" version="1.1" width="834px" height="343px" style="shape-rendering:geometricPrecision; text-rendering:geometricPrecision; image-rendering:optimizeQuality; fill-rule:evenodd; clip-rule:evenodd" xmlns:xlink="http://www.w3.org/1999/xlink">
<g><path style="opacity:0.934" fill="#000000" d="M 159.5,-0.5 C 168.167,-0.5 176.833,-0.5 185.5,-0.5C 246.097,7.53358 292.263,37.5336 324,89.5C 332.494,104.814 337.661,121.148 339.5,138.5C 337.323,138.414 335.323,137.747 333.5,136.5C 324.48,98.3737 304.814,67.2071 274.5,43C 257.346,30.9251 239.013,21.2584 219.5,14C 151.141,-3.31427 92.9744,13.5191 45,64.5C 6.32493,113.928 -3.00841,168.595 17,228.5C 37.8368,279.001 74.3368,312.501 126.5,329C 190.471,344.964 245.471,329.964 291.5,284C 301.667,272.166 310.667,259.499 318.5,246C 323.226,234.607 327.726,223.107 332,211.5C 333.897,209.984 336.064,209.317 338.5,209.5C 331.04,243.4 314.707,272.234 289.5,296C 261.782,321.193 229.449,336.693 192.5,342.5C 179.167,342.5 165.833,342.5 152.5,342.5C 88.6976,332.206 42.5309,298.206 14,240.5C 5.71601,218.098 0.882676,195.098 -0.5,171.5C -0.5,169.167 -0.5,166.833 -0.5,164.5C 0.833333,164.167 0.833333,163.833 -0.5,163.5C -0.5,162.5 -0.5,161.5 -0.5,160.5C 6.06548,94.4321 38.7321,45.9321 97.5,15C 117.531,7.11892 138.197,1.95226 159.5,-0.5 Z M 185.5,253.5 C 187.199,253.34 188.866,253.506 190.5,254C 187.943,256.892 185.776,260.059 184,263.5C 183.814,267.516 183.814,271.516 184,275.5C 182.287,280.038 179.12,281.538 174.5,280C 168.828,277.232 166.994,272.732 169,266.5C 169.872,263.274 171.705,260.774 174.5,259C 178.017,256.674 181.683,254.84 185.5,253.5 Z"/></g>
<g><path style="opacity:0.981" fill="#000000" d="M 168.5,81.5 C 211.522,79.5704 251.855,88.7371 289.5,109C 300.088,115.597 309.754,123.263 318.5,132C 266.721,103.497 211.054,92.83 151.5,100C 125.969,103.68 104.469,114.847 87,133.5C 69.6936,158.28 69.0269,183.613 85,209.5C 99.9836,228.259 119.15,240.925 142.5,247.5C 90.8064,246.873 49.9731,224.54 20,180.5C 15.8167,174.161 12.3167,167.495 9.5,160.5C 13.1248,154.713 17.2915,149.379 22,144.5C 63.0332,105.754 111.866,84.7538 168.5,81.5 Z"/></g>
<g><path style="opacity:0.957" fill="#000000" d="M 307.5,135.5 C 319.665,135.099 330.998,137.932 341.5,144C 356.831,156.491 360.664,171.991 353,190.5C 343.728,204.84 330.395,211.84 313,211.5C 294.663,211.339 280.663,203.672 271,188.5C 263.966,163.734 272.466,146.901 296.5,138C 300.43,137.758 304.097,136.925 307.5,135.5 Z M 306.5,140.5 C 323.969,138.468 334.136,146.134 337,163.5C 338.289,174.093 337.289,184.426 334,194.5C 325.089,207.11 313.589,209.944 299.5,203C 292.703,198.238 288.87,191.738 288,183.5C 285.532,170.171 288.032,158.004 295.5,147C 299.098,144.543 302.765,142.376 306.5,140.5 Z"/></g>
<g><path style="opacity:0.957" fill="#000000" d="M 833.5,163.5 C 833.5,169.5 833.5,175.5 833.5,181.5C 828.089,196.736 817.423,206.236 801.5,210C 788.463,212.129 776.13,210.129 764.5,204C 749.039,192.882 743.872,178.049 749,159.5C 755.082,147.033 764.916,139.199 778.5,136C 796.267,132.263 811.767,136.43 825,148.5C 828.097,153.411 830.931,158.411 833.5,163.5 Z M 787.5,139.5 C 802.041,139.2 810.874,146.2 814,160.5C 816.321,172.587 814.987,184.254 810,195.5C 807.079,199.092 803.579,201.925 799.5,204C 781.243,207.792 770.076,200.625 766,182.5C 762.877,168.292 766.044,155.792 775.5,145C 779.157,142.264 783.157,140.431 787.5,139.5 Z"/></g>
<g><path style="opacity:0.941" fill="#000000" d="M 431.5,136.5 C 439.84,136.334 448.173,136.5 456.5,137C 460.882,137.968 465.049,139.468 469,141.5C 470.509,139.081 472.675,138.081 475.5,138.5C 475.666,145.841 475.5,153.174 475,160.5C 474,161.833 473,161.833 472,160.5C 469.924,157.107 468.758,153.44 468.5,149.5C 465.021,148.378 462.021,146.378 459.5,143.5C 442.717,137.064 429.217,141.064 419,155.5C 413.934,169.108 414.6,182.442 421,195.5C 431.117,206.373 443.283,209.54 457.5,205C 459.833,203.333 462.167,201.667 464.5,200C 465.833,199.667 467.167,199.333 468.5,199C 470.39,194.664 471.89,190.164 473,185.5C 474.714,184.075 476.047,184.408 477,186.5C 477.5,193.826 477.666,201.159 477.5,208.5C 475.801,208.66 474.134,208.494 472.5,208C 471.541,206.536 470.208,205.703 468.5,205.5C 449.775,214.041 431.442,213.208 413.5,203C 396.298,190.352 392.132,174.185 401,154.5C 408.795,144.518 418.962,138.518 431.5,136.5 Z"/></g>
<g><path style="opacity:0.946" fill="#000000" d="M 159.5,137.5 C 175.882,137.077 192.215,137.577 208.5,139C 223.658,141.139 229.824,149.639 227,164.5C 223.218,172.315 217.051,177.149 208.5,179C 200.941,180.326 193.441,180.826 186,180.5C 185.333,187.167 185.333,193.833 186,200.5C 187.683,203.267 190.183,204.934 193.5,205.5C 194.429,206.689 194.762,208.022 194.5,209.5C 182.944,209.467 171.444,209.134 160,208.5C 159.383,207.551 159.549,206.718 160.5,206C 162.778,205.014 165.111,204.18 167.5,203.5C 168.251,202.624 168.751,201.624 169,200.5C 169.667,182.5 169.667,164.5 169,146.5C 167.299,142.125 164.133,140.458 159.5,141.5C 159.5,140.167 159.5,138.833 159.5,137.5 Z M 193.5,141.5 C 203.678,142.846 209.345,148.679 210.5,159C 207.92,173.302 199.754,178.136 186,173.5C 185.333,164.5 185.333,155.5 186,146.5C 186.374,145.584 186.874,144.75 187.5,144C 189.611,143.155 191.611,142.322 193.5,141.5 Z"/></g>
<g><path style="opacity:0.951" fill="#000000" d="M 516.5,137.5 C 536.483,138.259 556.483,138.759 576.5,139C 577.938,142.345 578.938,145.845 579.5,149.5C 579.566,151.266 578.732,152.266 577,152.5C 574.551,151.056 572.385,149.222 570.5,147C 567.623,146.044 564.956,144.711 562.5,143C 555.842,142.5 549.175,142.334 542.5,142.5C 542.5,151.5 542.5,160.5 542.5,169.5C 551.833,168.249 561.167,168.416 570.5,170C 575.488,171.514 579.821,174.014 583.5,177.5C 588.582,184.731 588.749,192.065 584,199.5C 580.735,200.048 578.568,201.881 577.5,205C 574.833,206 572.167,207 569.5,208C 551.863,209.344 534.196,209.844 516.5,209.5C 516.5,208.167 516.5,206.833 516.5,205.5C 519.97,206.125 522.804,205.125 525,202.5C 525.667,183.5 525.667,164.5 525,145.5C 523.043,142.558 520.21,141.225 516.5,141.5C 516.5,140.167 516.5,138.833 516.5,137.5 Z M 544.5,172.5 C 561.236,171.404 569.069,179.071 568,195.5C 563.254,203.123 556.42,206.289 547.5,205C 545.714,204.215 544.214,203.049 543,201.5C 541.902,191.577 542.402,181.91 544.5,172.5 Z"/></g>
<g><path style="opacity:0.949" fill="#000000" d="M 625.5,137.5 C 636.682,138.151 647.849,138.485 659,138.5C 659.617,139.449 659.451,140.282 658.5,141C 655.22,141.405 652.72,142.905 651,145.5C 650.814,152.414 650.314,159.247 649.5,166C 649.931,172.609 650.431,179.442 651,186.5C 662.425,173.815 673.258,160.648 683.5,147C 682.852,145.56 682.519,144.06 682.5,142.5C 680.194,142.007 677.861,141.674 675.5,141.5C 675.155,138.512 676.488,137.179 679.5,137.5C 689.529,137.877 699.529,137.877 709.5,137.5C 709.719,138.675 709.386,139.675 708.5,140.5C 705.833,141.123 703.333,142.123 701,143.5C 699.567,159.803 699.067,175.969 699.5,192C 699.966,195.937 700.799,199.77 702,203.5C 704.069,204.264 706.236,204.764 708.5,205C 709.167,205.667 709.833,206.333 710.5,207C 698.661,208.478 686.661,208.978 674.5,208.5C 674.281,207.325 674.614,206.325 675.5,205.5C 677.444,204.811 679.444,204.311 681.5,204C 682.701,203.097 683.535,201.931 684,200.5C 684.5,186.171 684.667,171.837 684.5,157.5C 682.097,157.393 680.264,158.393 679,160.5C 669.667,171.833 660.333,183.167 651,194.5C 649.108,201.778 651.941,205.445 659.5,205.5C 660.386,206.325 660.719,207.325 660.5,208.5C 649.801,208.212 639.134,208.546 628.5,209.5C 626.893,209.363 625.559,208.696 624.5,207.5C 627.066,205.8 629.899,204.467 633,203.5C 634.092,196.227 634.592,188.894 634.5,181.5C 633.923,169.425 633.757,157.425 634,145.5C 633.626,144.584 633.126,143.75 632.5,143C 630.212,142.178 627.878,141.511 625.5,141C 624.316,139.855 624.316,138.688 625.5,137.5 Z"/></g>
<g><path style="opacity:0.987" fill="#000000" d="M 258.5,194.5 C 259.922,194.75 260.922,195.583 261.5,197C 261.083,218.704 258.583,240.538 254,262.5C 250.085,280.381 241.252,295.215 227.5,307C 213.859,314.929 199.193,317.262 183.5,314C 164.546,306.396 156.713,292.563 160,272.5C 163.87,262.965 170.703,256.465 180.5,253C 190.527,249.523 200.86,247.523 211.5,247C 227.55,241.61 240.05,231.776 249,217.5C 253.802,210.524 256.969,202.857 258.5,194.5 Z M 185.5,253.5 C 181.683,254.84 178.017,256.674 174.5,259C 171.705,260.774 169.872,263.274 169,266.5C 166.994,272.732 168.828,277.232 174.5,280C 179.12,281.538 182.287,280.038 184,275.5C 183.814,271.516 183.814,267.516 184,263.5C 185.776,260.059 187.943,256.892 190.5,254C 188.866,253.506 187.199,253.34 185.5,253.5 Z"/></g>
</svg>
