<?xml version="1.0" encoding="UTF-8"?>
<!DOCTYPE svg PUBLIC "-//W3C//DTD SVG 1.1//EN" "http://www.w3.org/Graphics/SVG/1.1/DTD/svg11.dtd">
<svg xmlns="http://www.w3.org/2000/svg" version="1.1" width="604px" height="528px" style="shape-rendering:geometricPrecision; text-rendering:geometricPrecision; image-rendering:optimizeQuality; fill-rule:evenodd; clip-rule:evenodd" xmlns:xlink="http://www.w3.org/1999/xlink">
<g><path style="opacity:0.995" fill="#000000" d="M 173.5,-0.5 C 186.167,-0.5 198.833,-0.5 211.5,-0.5C 211.5,5.83333 211.5,12.1667 211.5,18.5C 272.736,19.6642 300.236,50.6642 294,111.5C 288.341,138.387 272.508,155.887 246.5,164C 234.977,166.752 223.311,168.586 211.5,169.5C 211.5,176.833 211.5,184.167 211.5,191.5C 198.833,191.5 186.167,191.5 173.5,191.5C 173.5,184.167 173.5,176.833 173.5,169.5C 154.496,168.868 136.496,164.368 119.5,156C 113.058,151.858 107.558,146.691 103,140.5C 101.907,136.784 101.407,132.95 101.5,129C 101.519,125.582 101.853,122.249 102.5,119C 112.849,118.168 123.183,118.334 133.5,119.5C 143.534,132.312 156.701,137.645 173,135.5C 173.667,107.833 173.667,80.1667 173,52.5C 158.694,50.3282 146.361,54.3282 136,64.5C 134.027,67.6171 132.193,70.7837 130.5,74C 117.504,74.4999 104.504,74.6666 91.5,74.5C 97.4642,47.0346 114.131,29.8679 141.5,23C 152.02,20.4091 162.687,18.9091 173.5,18.5C 173.5,12.1667 173.5,5.83333 173.5,-0.5 Z M 211.5,51.5 C 241.054,49.8971 256.387,63.7305 257.5,93C 259.013,115.455 249.013,129.455 227.5,135C 223.486,135.39 219.486,135.89 215.5,136.5C 214.228,136.43 213.062,136.097 212,135.5C 211.5,107.502 211.333,79.502 211.5,51.5 Z"/></g>
<g><path style="opacity:0.994" fill="#000000" d="M -0.5,112.5 C -0.5,102.167 -0.5,91.8333 -0.5,81.5C 49.6492,80.382 99.4825,79.7154 149,79.5C 150,80.1667 151,80.8333 152,81.5C 152.5,92.1615 152.667,102.828 152.5,113.5C 133.5,113.5 114.5,113.5 95.5,113.5C 95.2185,165.289 95.5518,216.956 96.5,268.5C 96.4302,269.772 96.0968,270.938 95.5,272C 82.5912,272.822 69.7579,272.655 57,271.5C 56.5,218.834 56.3333,166.168 56.5,113.5C 37.4238,113.82 18.4238,113.487 -0.5,112.5 Z"/></g>
<g><path style="opacity:0.989" fill="#000000" d="M 315.5,79.5 C 327.903,80.4922 340.236,80.8256 352.5,80.5C 353.46,86.7734 353.793,93.1067 353.5,99.5C 416.793,101.399 443.959,133.732 435,196.5C 428.353,221.147 412.853,237.313 388.5,245C 377.008,247.865 365.341,249.365 353.5,249.5C 353.814,257.087 353.481,264.587 352.5,272C 339.815,272.708 327.148,272.541 314.5,271.5C 314.813,264.245 314.48,257.079 313.5,250C 294.376,249.424 276.376,244.757 259.5,236C 239.452,220.064 230.119,199.23 231.5,173.5C 237.278,173.473 242.944,172.64 248.5,171C 255.638,168.788 262.638,166.288 269.5,163.5C 264.41,196.398 278.244,214.398 311,217.5C 312.107,217.415 313.107,217.081 314,216.5C 314.667,188.5 314.667,160.5 314,132.5C 313.275,131.941 312.442,131.608 311.5,131.5C 306.245,132.82 300.911,133.487 295.5,133.5C 298.769,122.752 300.935,111.752 302,100.5C 306.066,99.5363 310.233,99.203 314.5,99.5C 314.244,92.7756 314.577,86.109 315.5,79.5 Z M 353.5,131.5 C 383.286,131.289 398.619,145.956 399.5,175.5C 399.958,195.841 390.624,209.007 371.5,215C 365.517,216.031 359.517,216.864 353.5,217.5C 353.5,188.833 353.5,160.167 353.5,131.5 Z"/></g>
<g><path style="opacity:0.999" fill="#000000" d="M 603.5,288.5 C 603.5,300.833 603.5,313.167 603.5,325.5C 594.392,390.436 560.392,437.269 501.5,466C 484.282,473.573 466.282,477.74 447.5,478.5C 447.5,364.5 447.5,250.5 447.5,136.5C 513.326,143.645 560.493,176.978 589,236.5C 596.313,253.282 601.146,270.616 603.5,288.5 Z"/></g>
<g><path style="opacity:0.996" fill="#000000" d="M 429.5,527.5 C 427.167,527.5 424.833,527.5 422.5,527.5C 377.507,521.331 342.007,499.664 316,462.5C 287.154,411.872 289.154,362.539 322,314.5C 349.676,280.356 385.51,261.69 429.5,258.5C 429.5,348.167 429.5,437.833 429.5,527.5 Z"/></g>
<g><path style="opacity:0.985" fill="#000000" d="M 595.5,399.5 C 596.833,399.5 598.167,399.5 599.5,399.5C 593.785,435.858 576.785,465.692 548.5,489C 518.653,512.092 484.82,524.259 447,525.5C 446.883,516.213 447.05,506.88 447.5,497.5C 494.824,495.445 534.324,476.778 566,441.5C 571.303,434.858 576.636,428.191 582,421.5C 586.773,414.278 591.273,406.945 595.5,399.5 Z"/></g>
</svg>
