<?xml version="1.0" encoding="UTF-8"?>
<!DOCTYPE svg PUBLIC "-//W3C//DTD SVG 1.1//EN" "http://www.w3.org/Graphics/SVG/1.1/DTD/svg11.dtd">
<svg xmlns="http://www.w3.org/2000/svg" version="1.1" width="380px" height="136px" style="shape-rendering:geometricPrecision; text-rendering:geometricPrecision; image-rendering:optimizeQuality; fill-rule:evenodd; clip-rule:evenodd" xmlns:xlink="http://www.w3.org/1999/xlink">
<g><path style="opacity:1" fill="#000000" d="M 67.5,-0.5 C 75.8333,-0.5 84.1667,-0.5 92.5,-0.5C 99.9047,1.53137 106.905,4.69803 113.5,9C 116.5,13 115.5,15 110.5,15C 91.8227,2.46456 72.4893,1.79789 52.5,13C 29.735,30.3063 22.9016,52.1396 32,78.5C 44.0443,101.94 63.211,112.44 89.5,110C 121.116,101.048 135.283,80.2148 132,47.5C 130.833,41.3264 128.499,35.6597 125,30.5C 122.043,32.6936 121.21,35.3603 122.5,38.5C 119.817,38.2266 118.317,39.2266 118,41.5C 120.381,42.435 122.881,42.7683 125.5,42.5C 126.676,47.0467 126.676,51.5467 125.5,56C 121.623,56.7287 117.789,56.562 114,55.5C 111.423,55.8352 109.256,56.8352 107.5,58.5C 113.798,59.4963 120.132,59.8297 126.5,59.5C 126.563,64.2029 126.229,68.8696 125.5,73.5C 117.19,73.4073 108.857,73.7406 100.5,74.5C 100.167,74.8333 99.8333,75.1667 99.5,75.5C 102.833,75.8333 106.167,76.1667 109.5,76.5C 113.677,76.9178 117.677,76.9178 121.5,76.5C 121.833,77.1667 122.167,77.8333 122.5,78.5C 120.721,83.2215 118.055,87.3882 114.5,91C 107.476,91.1689 100.476,91.6689 93.5,92.5C 93.2907,93.086 92.9574,93.586 92.5,94C 95.7694,95.6889 99.1028,95.8555 102.5,94.5C 104.266,94.4342 105.266,95.2676 105.5,97C 98.897,101.982 91.397,104.815 83,105.5C 75.2508,105.23 67.7508,103.73 60.5,101C 52.0468,96.9066 52.5468,95.0733 62,95.5C 65.0354,95.609 67.8687,96.2757 70.5,97.5C 74.1635,95.0211 78.1635,93.1878 82.5,92C 83.6667,90.8333 84.8333,89.6667 86,88.5C 97.3733,60.063 113.04,34.3963 133,11.5C 135.833,8.66667 138.667,5.83333 141.5,3C 143.025,1.99136 144.692,1.49136 146.5,1.5C 146.66,3.19919 146.494,4.86586 146,6.5C 139.947,12.0503 134.447,18.0503 129.5,24.5C 139.76,43.4542 141.26,63.1209 134,83.5C 119.918,108.792 98.4178,119.625 69.5,116C 55.7051,113.439 44.3718,106.772 35.5,96C 32.1667,95.6667 28.8333,95.3333 25.5,95C 22.2863,92.0379 18.7863,91.8712 15,94.5C 13.733,99.4352 12.8997,104.435 12.5,109.5C 10.139,109.674 7.80562,110.007 5.5,110.5C 6.00323,105.141 6.6699,99.8075 7.5,94.5C 4.85692,93.546 2.19026,92.546 -0.5,91.5C -0.5,88.5 -0.5,85.5 -0.5,82.5C 2.34105,81.7586 4.34105,80.0919 5.5,77.5C 4.42986,69.8529 3.92986,62.1863 4,54.5C 6.61206,51.4241 9.77873,50.7575 13.5,52.5C 14.6964,53.5594 15.363,54.8927 15.5,56.5C 14.8333,63.5 14.1667,70.5 13.5,77.5C 14.8214,79.3318 15.8214,81.3318 16.5,83.5C 11.7858,83.3531 7.11909,83.6864 2.5,84.5C 2.5,85.5 2.5,86.5 2.5,87.5C 10.1667,87.5 17.8333,87.5 25.5,87.5C 25.3739,85.8002 24.7073,84.3002 23.5,83C 24.0182,81.3736 24.3516,79.707 24.5,78C 16.3026,39.2127 30.636,13.046 67.5,-0.5 Z"/></g>
<g><path style="opacity:1" fill="#000000" d="M 69.5,11.5 C 76.8409,11.3337 84.1742,11.5003 91.5,12C 97.2909,13.0861 102.291,15.5861 106.5,19.5C 106.291,20.086 105.957,20.586 105.5,21C 89.1667,21.6667 72.8333,21.6667 56.5,21C 54.5188,20.3946 54.1854,19.3946 55.5,18C 59.8463,14.9914 64.513,12.8248 69.5,11.5 Z"/></g>
<g><path style="opacity:1" fill="#000000" d="M 47.5,23.5 C 66.3665,23.3926 85.3665,23.7259 104.5,24.5C 101.071,29.0189 97.4041,33.3522 93.5,37.5C 84.8525,38.6652 76.1858,38.8319 67.5,38C 62.9407,31.3751 56.9407,29.3751 49.5,32C 46.3681,33.6349 43.3681,35.4682 40.5,37.5C 39.3861,36.277 39.2195,34.9437 40,33.5C 41.9474,29.7238 44.4474,26.3904 47.5,23.5 Z"/></g>
<g><path style="opacity:1" fill="#000000" d="M 36.5,41.5 C 43.5836,43.2388 48.5836,47.5721 51.5,54.5C 51.2907,55.086 50.9574,55.586 50.5,56C 44.8431,56.4994 39.1764,56.6661 33.5,56.5C 33.3969,51.251 34.3969,46.251 36.5,41.5 Z"/></g>
<g><path style="opacity:1" fill="#000000" d="M 75.5,41.5 C 79.5483,41.3946 83.5483,41.7279 87.5,42.5C 87.5086,44.3084 87.0086,45.9751 86,47.5C 84,50.1667 82,52.8333 80,55.5C 78.9887,56.3366 77.8221,56.67 76.5,56.5C 74.4339,51.9679 72.7673,47.3013 71.5,42.5C 73.099,42.7678 74.4324,42.4345 75.5,41.5 Z"/></g>
<g><path style="opacity:1" fill="#000000" d="M 202.5,52.5 C 207.179,52.3342 211.845,52.5008 216.5,53C 217.931,53.4652 219.097,54.2986 220,55.5C 224.326,76.4641 228.66,97.4641 233,118.5C 240.279,126.402 238.613,130.735 228,131.5C 224.904,131.206 221.737,130.873 218.5,130.5C 218.167,129.5 217.833,128.5 217.5,127.5C 219.28,122.984 219.78,118.317 219,113.5C 218.626,112.584 218.126,111.75 217.5,111C 213.909,110.211 210.409,110.378 207,111.5C 204.96,116.583 205.126,121.583 207.5,126.5C 207.61,128.374 206.944,129.874 205.5,131C 199.845,131.819 194.345,131.319 189,129.5C 188.333,127.5 188.333,125.5 189,123.5C 190.385,122.449 191.385,121.116 192,119.5C 196.044,100.943 200.211,82.4429 204.5,64C 201.408,60.6165 200.741,56.7832 202.5,52.5 Z M 212.5,74.5 C 214.795,82.9192 216.462,91.5858 217.5,100.5C 214.5,100.5 211.5,100.5 208.5,100.5C 209.196,91.7214 210.529,83.0548 212.5,74.5 Z"/></g>
<g><path style="opacity:1" fill="#000000" d="M 245.5,52.5 C 258.746,52.1773 271.913,52.5106 285,53.5C 285.758,57.3286 284.758,60.6619 282,63.5C 281.333,82.1667 281.333,100.833 282,119.5C 284.854,122.614 286.021,126.281 285.5,130.5C 278.62,131.025 272.12,131.025 266,130.5C 265.333,128.5 265.333,126.5 266,124.5C 267.439,122.725 268.439,120.725 269,118.5C 269.667,100.833 269.667,83.1667 269,65.5C 267.312,63.9551 265.312,62.9551 263,62.5C 262.586,62.9574 262.086,63.2907 261.5,63.5C 260.667,76.8209 260.167,90.1542 260,103.5C 259.646,111.609 257.646,119.276 254,126.5C 250.608,131.044 246.275,132.71 241,131.5C 240.014,129.222 239.18,126.889 238.5,124.5C 241.518,122.738 244.018,120.404 246,117.5C 249.932,99.3037 250.599,80.9703 248,62.5C 245.836,59.5527 245.002,56.2194 245.5,52.5 Z"/></g>
<g><path style="opacity:1" fill="#000000" d="M 300.5,52.5 C 305.179,52.3342 309.845,52.5008 314.5,53C 316.329,53.2735 317.829,54.1068 319,55.5C 323.793,77.131 328.46,98.7977 333,120.5C 337.271,124.229 337.438,127.896 333.5,131.5C 327.862,131.811 322.195,131.477 316.5,130.5C 316.02,126.694 317.02,123.361 319.5,120.5C 319.178,117.024 318.178,113.858 316.5,111C 312.909,110.211 309.409,110.378 306,111.5C 305.608,114.188 305.108,116.855 304.5,119.5C 306.436,123.045 306.769,126.711 305.5,130.5C 300.993,131.065 296.493,131.398 292,131.5C 286.359,128.681 286.025,125.014 291,120.5C 294.666,103.503 298.333,86.5026 302,69.5C 301.543,63.8787 301.043,58.2121 300.5,52.5 Z M 311.5,74.5 C 313.912,82.8986 315.579,91.5652 316.5,100.5C 313.5,100.5 310.5,100.5 307.5,100.5C 308.446,91.7699 309.78,83.1033 311.5,74.5 Z"/></g>
<g><path style="opacity:1" fill="#000000" d="M 379.5,64.5 C 379.5,72.8333 379.5,81.1667 379.5,89.5C 377.493,92.8493 375.493,96.1827 373.5,99.5C 372.178,99.67 371.011,99.3366 370,98.5C 365.576,99.8606 361.243,100.527 357,100.5C 355.795,106.895 355.295,113.062 355.5,119C 359.174,122.405 360.174,126.405 358.5,131C 352.251,131.809 346.084,131.642 340,130.5C 339.333,128.167 339.333,125.833 340,123.5C 341.797,122.073 342.964,120.24 343.5,118C 343.488,100.393 343.488,82.7261 343.5,65C 340.924,61.2664 339.924,57.0997 340.5,52.5C 350.506,52.3335 360.506,52.5002 370.5,53C 375.279,55.5933 378.279,59.4266 379.5,64.5 Z M 356.5,63.5 C 359.448,63.2229 362.281,63.5562 365,64.5C 366.594,71.7265 366.928,79.0598 366,86.5C 363.454,89.1856 360.287,90.1856 356.5,89.5C 356.5,80.8333 356.5,72.1667 356.5,63.5 Z"/></g>
<g><path style="opacity:1" fill="#000000" d="M 147.5,53.5 C 156.173,53.3336 164.84,53.5002 173.5,54C 177.843,55.0095 181.01,57.5095 183,61.5C 185.406,71.2069 184.906,80.7069 181.5,90C 183.345,92.5276 184.512,95.361 185,98.5C 186.136,107.673 185.469,116.673 183,125.5C 177.772,130.186 171.606,132.186 164.5,131.5C 158.587,130.577 152.754,130.244 147,130.5C 144.738,126.61 145.405,123.277 149,120.5C 149.667,101.5 149.667,82.5 149,63.5C 146.314,60.5364 145.814,57.203 147.5,53.5 Z M 162.5,63.5 C 166.007,62.9935 169.174,63.6602 172,65.5C 172.667,71.1667 172.667,76.8333 172,82.5C 171.626,83.4162 171.126,84.2496 170.5,85C 167.571,85.7772 164.737,85.6105 162,84.5C 161.205,77.4197 161.372,70.4197 162.5,63.5 Z M 164.5,94.5 C 167.545,94.3418 170.379,95.0085 173,96.5C 173.667,104.167 173.667,111.833 173,119.5C 169.558,121.733 165.892,122.067 162,120.5C 161.5,112.173 161.334,103.84 161.5,95.5C 162.791,95.7373 163.791,95.404 164.5,94.5 Z"/></g>
<g><path style="opacity:1" fill="#000000" d="M 33.5,59.5 C 40.5079,59.3337 47.5079,59.5004 54.5,60C 58.0311,64.2253 60.0311,69.0586 60.5,74.5C 52.4931,74.6664 44.4931,74.4997 36.5,74C 34.3173,69.4325 33.3173,64.5992 33.5,59.5 Z"/></g>
<g><path style="opacity:1" fill="#000000" d="M 39.5,76.5 C 47.1739,76.3336 54.8406,76.5003 62.5,77C 65.2636,81.4576 66.9303,86.2909 67.5,91.5C 60.4921,91.6663 53.4921,91.4996 46.5,91C 42.0262,86.8964 39.6929,82.063 39.5,76.5 Z"/></g>
<g><path style="opacity:1" fill="#000000" d="M 132.5,135.5 C 128.167,135.5 123.833,135.5 119.5,135.5C 119.249,133.83 118.582,132.33 117.5,131C 93.5,130.333 69.5,130.333 45.5,131C 44.7334,132.47 44.0668,133.97 43.5,135.5C 39.1667,135.5 34.8333,135.5 30.5,135.5C 30.9607,129.697 32.1274,124.03 34,118.5C 38.1396,113.789 43.3062,112.289 49.5,114C 70.1667,124 90.8333,124 111.5,114C 122.171,111.749 128.671,115.915 131,126.5C 131.953,129.432 132.453,132.432 132.5,135.5 Z M 40.5,118.5 C 43.1873,118.336 45.854,118.503 48.5,119C 53.7385,121.454 59.0718,123.621 64.5,125.5C 58.6583,126.087 52.9917,126.087 47.5,125.5C 43.5506,126.844 39.8839,128.51 36.5,130.5C 36.3169,125.86 37.6502,121.86 40.5,118.5 Z"/></g>
</svg>
