<?xml version="1.0" encoding="UTF-8"?>
<!DOCTYPE svg PUBLIC "-//W3C//DTD SVG 1.1//EN" "http://www.w3.org/Graphics/SVG/1.1/DTD/svg11.dtd">
<svg xmlns="http://www.w3.org/2000/svg" version="1.1" width="356px" height="336px" style="shape-rendering:geometricPrecision; text-rendering:geometricPrecision; image-rendering:optimizeQuality; fill-rule:evenodd; clip-rule:evenodd" xmlns:xlink="http://www.w3.org/1999/xlink">
<g><path style="opacity:1" fill="#000000" d="M 177.5,-0.5 C 178.5,-0.5 179.5,-0.5 180.5,-0.5C 195.345,16.8767 207.179,36.21 216,57.5C 225.191,82.2322 218.691,101.399 196.5,115C 176.068,122.435 158.901,117.935 145,101.5C 138.391,89.5373 136.724,76.8706 140,63.5C 148.138,39.5497 160.638,18.2164 177.5,-0.5 Z"/></g>
<g><path style="opacity:1" fill="#000000" d="M 90.5,97.5 C 130.663,99.302 157.496,118.969 171,156.5C 172.319,161.775 173.319,167.108 174,172.5C 174.829,205.072 174.662,237.572 173.5,270C 127.289,267.122 99.7889,242.955 91,197.5C 90.5,164.168 90.3333,130.835 90.5,97.5 Z"/></g>
<g><path style="opacity:1" fill="#000000" d="M 260.5,97.5 C 262.833,97.5 265.167,97.5 267.5,97.5C 267.667,131.502 267.5,165.502 267,199.5C 257.618,242.544 230.952,266.211 187,270.5C 185.893,270.415 184.893,270.081 184,269.5C 183.333,237.833 183.333,206.167 184,174.5C 190.331,129.669 215.831,104.002 260.5,97.5 Z"/></g>
<g><path style="opacity:1" fill="#000000" d="M 172.5,335.5 C 167.167,335.5 161.833,335.5 156.5,335.5C 142.78,329.568 137.947,319.234 142,304.5C 144.67,297.165 149.837,292.665 157.5,291C 168.144,288.437 176.977,291.271 184,299.5C 185.341,302.022 186.174,304.689 186.5,307.5C 182.818,307.665 179.152,307.499 175.5,307C 171.999,301.421 166.999,299.421 160.5,301C 150.117,307.471 149.117,315.138 157.5,324C 165.069,327.534 171.069,325.701 175.5,318.5C 179.107,317.511 182.774,317.177 186.5,317.5C 185.22,326.115 180.554,332.115 172.5,335.5 Z"/></g>
<g><path style="opacity:1" fill="#000000" d="M -0.5,291.5 C 10.8333,291.5 22.1667,291.5 33.5,291.5C 33.5,294.833 33.5,298.167 33.5,301.5C 25.5,301.5 17.5,301.5 9.5,301.5C 9.5,303.167 9.5,304.833 9.5,306.5C 15.1764,306.334 20.8431,306.501 26.5,307C 37.0759,312.744 39.0759,320.744 32.5,331C 30.7254,332.439 28.7254,333.439 26.5,334C 17.5062,334.5 8.50617,334.666 -0.5,334.5C -0.5,320.167 -0.5,305.833 -0.5,291.5 Z M 9.5,316.5 C 13.8461,316.334 18.1794,316.501 22.5,317C 26.4659,319.382 26.4659,321.715 22.5,324C 18.1794,324.499 13.8461,324.666 9.5,324.5C 9.5,321.833 9.5,319.167 9.5,316.5 Z"/></g>
<g><path style="opacity:1" fill="#000000" d="M 47.5,291.5 C 54.5,291.5 61.5,291.5 68.5,291.5C 72.3074,305.729 75.6408,320.063 78.5,334.5C 75.1501,334.665 71.8168,334.498 68.5,334C 67.6532,331.282 66.6532,328.616 65.5,326C 60.1771,325.501 54.8437,325.334 49.5,325.5C 49.4519,328.313 48.7853,330.979 47.5,333.5C 43.8927,334.489 40.226,334.823 36.5,334.5C 40.0107,320.124 43.6773,305.791 47.5,291.5 Z M 56.5,301.5 C 57.8221,301.33 58.9887,301.663 60,302.5C 60.9395,306.762 62.1062,310.928 63.5,315C 59.7887,315.825 56.122,315.659 52.5,314.5C 53.684,310.091 55.0174,305.758 56.5,301.5 Z"/></g>
<g><path style="opacity:1" fill="#000000" d="M 81.5,291.5 C 85.1667,291.5 88.8333,291.5 92.5,291.5C 92.5,302.5 92.5,313.5 92.5,324.5C 96.1667,324.5 99.8333,324.5 103.5,324.5C 103.5,313.5 103.5,302.5 103.5,291.5C 107.167,291.5 110.833,291.5 114.5,291.5C 114.5,302.5 114.5,313.5 114.5,324.5C 118.167,324.5 121.833,324.5 125.5,324.5C 125.5,313.5 125.5,302.5 125.5,291.5C 129.167,291.5 132.833,291.5 136.5,291.5C 136.5,305.833 136.5,320.167 136.5,334.5C 118.167,334.5 99.8333,334.5 81.5,334.5C 81.5,320.167 81.5,305.833 81.5,291.5 Z"/></g>
<g><path style="opacity:1" fill="#000000" d="M 190.5,291.5 C 203.167,291.5 215.833,291.5 228.5,291.5C 228.5,305.833 228.5,320.167 228.5,334.5C 225.167,334.5 221.833,334.5 218.5,334.5C 218.5,323.5 218.5,312.5 218.5,301.5C 212.833,301.5 207.167,301.5 201.5,301.5C 201.5,312.5 201.5,323.5 201.5,334.5C 197.833,334.5 194.167,334.5 190.5,334.5C 190.5,320.167 190.5,305.833 190.5,291.5 Z"/></g>
<g><path style="opacity:1" fill="#000000" d="M 235.5,291.5 C 238.833,291.5 242.167,291.5 245.5,291.5C 245.334,300.173 245.5,308.84 246,317.5C 250.833,309.167 255.667,300.833 260.5,292.5C 264.783,291.508 269.116,291.174 273.5,291.5C 273.5,305.833 273.5,320.167 273.5,334.5C 270.167,334.5 266.833,334.5 263.5,334.5C 263.666,325.827 263.5,317.16 263,308.5C 258.167,316.833 253.333,325.167 248.5,333.5C 244.217,334.492 239.884,334.826 235.5,334.5C 235.5,320.167 235.5,305.833 235.5,291.5 Z"/></g>
<g><path style="opacity:1" fill="#000000" d="M 279.5,291.5 C 288.173,291.334 296.84,291.5 305.5,292C 315.356,294.872 319.189,301.372 317,311.5C 314.973,317.445 310.806,320.945 304.5,322C 299.845,322.499 295.179,322.666 290.5,322.5C 290.5,326.5 290.5,330.5 290.5,334.5C 286.833,334.5 283.167,334.5 279.5,334.5C 279.5,320.167 279.5,305.833 279.5,291.5 Z M 290.5,301.5 C 294.514,301.334 298.514,301.501 302.5,302C 306.944,304.111 307.611,307.111 304.5,311C 299.934,312.309 295.267,312.809 290.5,312.5C 290.5,308.833 290.5,305.167 290.5,301.5 Z"/></g>
<g><path style="opacity:1" fill="#000000" d="M 355.5,291.5 C 355.5,294.833 355.5,298.167 355.5,301.5C 351.167,301.5 346.833,301.5 342.5,301.5C 342.5,312.5 342.5,323.5 342.5,334.5C 338.833,334.5 335.167,334.5 331.5,334.5C 331.5,323.5 331.5,312.5 331.5,301.5C 327.167,301.5 322.833,301.5 318.5,301.5C 318.5,298.167 318.5,294.833 318.5,291.5C 330.833,291.5 343.167,291.5 355.5,291.5 Z"/></g>
</svg>
