<?xml version="1.0" encoding="UTF-8"?>
<!DOCTYPE svg PUBLIC "-//W3C//DTD SVG 1.1//EN" "http://www.w3.org/Graphics/SVG/1.1/DTD/svg11.dtd">
<svg xmlns="http://www.w3.org/2000/svg" version="1.1" width="464px" height="496px" style="shape-rendering:geometricPrecision; text-rendering:geometricPrecision; image-rendering:optimizeQuality; fill-rule:evenodd; clip-rule:evenodd" xmlns:xlink="http://www.w3.org/1999/xlink">
<g><path style="opacity:1" fill="#000000" d="M 176.5,-0.5 C 226.5,-0.5 276.5,-0.5 326.5,-0.5C 337.599,3.60594 343.265,11.6059 343.5,23.5C 350.175,23.3337 356.842,23.5004 363.5,24C 364.416,24.3742 365.25,24.8742 366,25.5C 367.263,32.7282 367.93,40.0615 368,47.5C 385.881,58.5673 396.381,74.5673 399.5,95.5C 402.167,95.5 404.833,95.5 407.5,95.5C 407.5,100.833 407.5,106.167 407.5,111.5C 404.833,111.5 402.167,111.5 399.5,111.5C 399.5,154.167 399.5,196.833 399.5,239.5C 416.837,239.333 434.17,239.5 451.5,240C 453.333,240.5 454.5,241.667 455,243.5C 455.5,322.166 455.667,400.833 455.5,479.5C 458.167,479.5 460.833,479.5 463.5,479.5C 463.5,484.833 463.5,490.167 463.5,495.5C 308.833,495.5 154.167,495.5 -0.5,495.5C -0.5,490.167 -0.5,484.833 -0.5,479.5C 2.16667,479.5 4.83333,479.5 7.5,479.5C 7.33333,370.499 7.5,261.499 8,152.5C 10.3513,145.481 14.8513,140.314 21.5,137C 30.0836,135.59 38.7502,135.09 47.5,135.5C 47.5,127.5 47.5,119.5 47.5,111.5C 44.8333,111.5 42.1667,111.5 39.5,111.5C 39.5,106.167 39.5,100.833 39.5,95.5C 74.1667,95.5 108.833,95.5 143.5,95.5C 143.5,100.833 143.5,106.167 143.5,111.5C 140.833,111.5 138.167,111.5 135.5,111.5C 135.5,130.167 135.5,148.833 135.5,167.5C 138.167,167.5 140.833,167.5 143.5,167.5C 143.5,172.833 143.5,178.167 143.5,183.5C 140.833,183.5 138.167,183.5 135.5,183.5C 135.5,202.167 135.5,220.833 135.5,239.5C 138.167,239.5 140.833,239.5 143.5,239.5C 143.5,244.833 143.5,250.167 143.5,255.5C 140.833,255.5 138.167,255.5 135.5,255.5C 135.5,259.833 135.5,264.167 135.5,268.5C 143.329,266.067 151.329,264.401 159.5,263.5C 159.333,181.166 159.5,98.8327 160,16.5C 163.019,8.31563 168.519,2.64896 176.5,-0.5 Z M 183.5,15.5 C 228.835,15.3333 274.168,15.5 319.5,16C 324.107,16.4386 326.44,18.9386 326.5,23.5C 320.158,23.3338 313.825,23.5005 307.5,24C 306.584,24.3742 305.75,24.8742 305,25.5C 303.737,32.7282 303.07,40.0615 303,47.5C 285.119,58.5673 274.619,74.5673 271.5,95.5C 268.833,95.5 266.167,95.5 263.5,95.5C 263.5,100.833 263.5,106.167 263.5,111.5C 266.167,111.5 268.833,111.5 271.5,111.5C 271.5,154.167 271.5,196.833 271.5,239.5C 268.833,239.5 266.167,239.5 263.5,239.5C 266.221,225.792 261.554,215.625 249.5,209C 224.898,207.529 200.232,207.029 175.5,207.5C 175.333,146.166 175.5,84.8324 176,23.5C 176.68,18.9895 179.18,16.3228 183.5,15.5 Z M 326.5,56.5 C 355.401,54.583 374.068,67.4164 382.5,95C 351.167,95.6667 319.833,95.6667 288.5,95C 294.016,74.985 306.682,62.1516 326.5,56.5 Z M 63.5,111.5 C 82.1667,111.5 100.833,111.5 119.5,111.5C 119.5,130.167 119.5,148.833 119.5,167.5C 100.833,167.5 82.1667,167.5 63.5,167.5C 63.5,148.833 63.5,130.167 63.5,111.5 Z M 302.5,112.5 C 324.329,111.337 346.329,111.17 368.5,112C 357.5,121.167 346.5,130.333 335.5,139.5C 324.653,130.253 313.653,121.253 302.5,112.5 Z M 297.5,130.5 C 303.489,135.157 309.156,140.157 314.5,145.5C 307.273,142.273 301.606,137.273 297.5,130.5 Z M 373.5,130.5 C 369.394,137.273 363.727,142.273 356.5,145.5C 361.844,140.157 367.511,135.157 373.5,130.5 Z M 287.5,147.5 C 293.646,153.639 300.646,158.639 308.5,162.5C 302.137,169.03 295.303,175.03 288,180.5C 287.5,169.505 287.333,158.505 287.5,147.5 Z M 382.5,147.5 C 383.659,158.326 383.826,169.326 383,180.5C 375.697,175.03 368.863,169.03 362.5,162.5C 370.309,158.939 376.975,153.939 382.5,147.5 Z M 31.5,151.5 C 36.8333,151.5 42.1667,151.5 47.5,151.5C 47.5,156.833 47.5,162.167 47.5,167.5C 44.8333,167.5 42.1667,167.5 39.5,167.5C 39.5,172.833 39.5,178.167 39.5,183.5C 42.1667,183.5 44.8333,183.5 47.5,183.5C 47.5,202.167 47.5,220.833 47.5,239.5C 44.8333,239.5 42.1667,239.5 39.5,239.5C 39.5,244.833 39.5,250.167 39.5,255.5C 42.1667,255.5 44.8333,255.5 47.5,255.5C 47.5,274.167 47.5,292.833 47.5,311.5C 44.8333,311.5 42.1667,311.5 39.5,311.5C 39.5,316.833 39.5,322.167 39.5,327.5C 42.1667,327.5 44.8333,327.5 47.5,327.5C 47.5,346.167 47.5,364.833 47.5,383.5C 44.8333,383.5 42.1667,383.5 39.5,383.5C 39.5,388.833 39.5,394.167 39.5,399.5C 42.1667,399.5 44.8333,399.5 47.5,399.5C 47.5,418.167 47.5,436.833 47.5,455.5C 43.4862,455.334 39.4862,455.501 35.5,456C 34.5838,456.374 33.7504,456.874 33,457.5C 31.5714,464.719 31.0714,472.053 31.5,479.5C 28.8333,479.5 26.1667,479.5 23.5,479.5C 23.3333,372.833 23.5,266.166 24,159.5C 24.6804,154.989 27.1804,152.323 31.5,151.5 Z M 329.5,167.5 C 333.514,167.334 337.514,167.501 341.5,168C 350.5,175.667 359.5,183.333 368.5,191C 346.5,191.667 324.5,191.667 302.5,191C 311.693,183.302 320.693,175.468 329.5,167.5 Z M 63.5,183.5 C 82.1667,183.5 100.833,183.5 119.5,183.5C 119.5,202.167 119.5,220.833 119.5,239.5C 100.833,239.5 82.1667,239.5 63.5,239.5C 63.5,220.833 63.5,202.167 63.5,183.5 Z M 302.5,208.5 C 324.329,207.337 346.329,207.17 368.5,208C 357.5,217.167 346.5,226.333 335.5,235.5C 324.653,226.253 313.653,217.253 302.5,208.5 Z M 287.5,218.5 C 299.427,227.424 310.76,237.09 321.5,247.5C 310.802,257.698 299.635,267.365 288,276.5C 287.5,257.17 287.333,237.836 287.5,218.5 Z M 382.5,218.5 C 383.662,237.662 383.829,256.996 383,276.5C 371.365,267.365 360.198,257.698 349.5,247.5C 360.223,237.439 371.223,227.772 382.5,218.5 Z M 175.5,223.5 C 196.836,223.333 218.169,223.5 239.5,224C 244,224.5 246.5,227 247,231.5C 247.497,234.146 247.664,236.813 247.5,239.5C 240.825,239.334 234.158,239.5 227.5,240C 226.584,240.374 225.75,240.874 225,241.5C 223.702,255.073 223.035,268.739 223,282.5C 209.142,271.377 193.308,265.044 175.5,263.5C 175.5,250.167 175.5,236.833 175.5,223.5 Z M 63.5,255.5 C 82.1667,255.5 100.833,255.5 119.5,255.5C 119.666,262.841 119.5,270.174 119,277.5C 95.7297,293.309 82.563,315.309 79.5,343.5C 76.8333,343.5 74.1667,343.5 71.5,343.5C 71.5,348.833 71.5,354.167 71.5,359.5C 74.1667,359.5 76.8333,359.5 79.5,359.5C 81.0045,375.182 86.1711,389.515 95,402.5C 95.4999,420.164 95.6666,437.83 95.5,455.5C 84.8333,455.5 74.1667,455.5 63.5,455.5C 63.5,436.833 63.5,418.167 63.5,399.5C 68.8333,399.5 74.1667,399.5 79.5,399.5C 79.5,394.167 79.5,388.833 79.5,383.5C 74.1667,383.5 68.8333,383.5 63.5,383.5C 63.5,364.833 63.5,346.167 63.5,327.5C 68.8333,327.5 74.1667,327.5 79.5,327.5C 79.5,322.167 79.5,316.833 79.5,311.5C 74.1667,311.5 68.8333,311.5 63.5,311.5C 63.5,292.833 63.5,274.167 63.5,255.5 Z M 239.5,255.5 C 250.167,255.5 260.833,255.5 271.5,255.5C 271.5,330.167 271.5,404.833 271.5,479.5C 260.833,479.5 250.167,479.5 239.5,479.5C 239.333,453.831 239.5,428.165 240,402.5C 248.829,389.515 253.996,375.182 255.5,359.5C 258.167,359.5 260.833,359.5 263.5,359.5C 263.5,354.167 263.5,348.833 263.5,343.5C 260.833,343.5 258.167,343.5 255.5,343.5C 253.996,327.818 248.829,313.485 240,300.5C 239.5,285.504 239.333,270.504 239.5,255.5 Z M 399.5,255.5 C 412.833,255.5 426.167,255.5 439.5,255.5C 439.5,330.167 439.5,404.833 439.5,479.5C 426.167,479.5 412.833,479.5 399.5,479.5C 399.5,404.833 399.5,330.167 399.5,255.5 Z M 334.5,259.5 C 336.255,260.072 337.922,260.906 339.5,262C 349.167,270.333 358.833,278.667 368.5,287C 346.5,287.667 324.5,287.667 302.5,287C 313.425,278.052 324.091,268.885 334.5,259.5 Z M 166.5,279.5 C 206.492,282.824 230.492,304.157 238.5,343.5C 191.167,343.5 143.833,343.5 96.5,343.5C 104.306,305.021 127.64,283.688 166.5,279.5 Z M 302.5,304.5 C 324.329,303.337 346.329,303.17 368.5,304C 357.5,313.167 346.5,322.333 335.5,331.5C 324.653,322.253 313.653,313.253 302.5,304.5 Z M 287.5,314.5 C 299.427,323.424 310.76,333.09 321.5,343.5C 310.802,353.698 299.635,363.365 288,372.5C 287.5,353.17 287.333,333.836 287.5,314.5 Z M 382.5,314.5 C 383.662,333.662 383.829,352.996 383,372.5C 371.365,363.365 360.198,353.698 349.5,343.5C 360.223,333.439 371.223,323.772 382.5,314.5 Z M 334.5,355.5 C 336.255,356.072 337.922,356.906 339.5,358C 349.167,366.333 358.833,374.667 368.5,383C 346.5,383.667 324.5,383.667 302.5,383C 313.425,374.052 324.091,364.885 334.5,355.5 Z M 96.5,359.5 C 143.833,359.5 191.167,359.5 238.5,359.5C 231.833,394.833 210.833,415.833 175.5,422.5C 175.5,414.833 175.5,407.167 175.5,399.5C 170.167,399.5 164.833,399.5 159.5,399.5C 159.5,407.167 159.5,414.833 159.5,422.5C 124.167,415.833 103.167,394.833 96.5,359.5 Z M 302.5,400.5 C 324.329,399.337 346.329,399.17 368.5,400C 357.5,409.167 346.5,418.333 335.5,427.5C 324.653,418.253 313.653,409.253 302.5,400.5 Z M 287.5,410.5 C 299.427,419.424 310.76,429.09 321.5,439.5C 310.802,449.698 299.635,459.365 288,468.5C 287.5,449.17 287.333,429.836 287.5,410.5 Z M 382.5,410.5 C 383.662,429.662 383.829,448.996 383,468.5C 371.365,459.365 360.198,449.698 349.5,439.5C 360.223,429.439 371.223,419.772 382.5,410.5 Z M 111.5,420.5 C 114.057,422.032 116.557,423.699 119,425.5C 119.5,435.494 119.666,445.494 119.5,455.5C 116.833,455.5 114.167,455.5 111.5,455.5C 111.5,443.833 111.5,432.167 111.5,420.5 Z M 222.5,420.5 C 223.497,439.993 223.83,459.66 223.5,479.5C 207.5,479.5 191.5,479.5 175.5,479.5C 175.5,466.167 175.5,452.833 175.5,439.5C 193.278,438.027 208.944,431.694 222.5,420.5 Z M 135.5,434.5 C 143.329,436.933 151.329,438.599 159.5,439.5C 159.5,452.833 159.5,466.167 159.5,479.5C 156.833,479.5 154.167,479.5 151.5,479.5C 151.929,472.053 151.429,464.719 150,457.5C 149.25,456.874 148.416,456.374 147.5,456C 143.514,455.501 139.514,455.334 135.5,455.5C 135.5,448.5 135.5,441.5 135.5,434.5 Z M 334.5,451.5 C 336.255,452.072 337.922,452.906 339.5,454C 349.167,462.333 358.833,470.667 368.5,479C 346.5,479.667 324.5,479.667 302.5,479C 313.425,470.052 324.091,460.885 334.5,451.5 Z M 47.5,471.5 C 63.5,471.5 79.5,471.5 95.5,471.5C 95.5,474.167 95.5,476.833 95.5,479.5C 79.5,479.5 63.5,479.5 47.5,479.5C 47.5,476.833 47.5,474.167 47.5,471.5 Z M 111.5,471.5 C 119.5,471.5 127.5,471.5 135.5,471.5C 135.5,474.167 135.5,476.833 135.5,479.5C 127.5,479.5 119.5,479.5 111.5,479.5C 111.5,476.833 111.5,474.167 111.5,471.5 Z"/></g>
</svg>
