<?xml version="1.0" standalone="no"?>
<!DOCTYPE svg PUBLIC "-//W3C//DTD SVG 20010904//EN"
 "http://www.w3.org/TR/2001/REC-SVG-20010904/DTD/svg10.dtd">
<svg version="1.0" xmlns="http://www.w3.org/2000/svg"
 width="1592.000000pt" height="2133.000000pt" viewBox="0 0 1592.000000 2133.000000"
 preserveAspectRatio="xMidYMid meet">

<g transform="translate(0.000000,2133.000000) scale(0.100000,-0.100000)"
fill="#000000" stroke="none">
<path d="M1422 21288 c-26 -59 -44 -72 -147 -108 -345 -121 -566 -357 -661
-705 l-27 -100 -7 -595 c-17 -1389 -22 -3870 -11 -5575 l12 -1770 32 -54 c80
-134 192 -146 307 -31 l40 40 0 193 c0 105 9 1895 20 3977 15 2668 24 3795 31
3820 28 88 95 196 164 265 76 76 152 122 267 161 l71 24 1851 10 c2375 12
6782 12 9148 0 1836 -10 1846 -10 1915 -31 204 -63 353 -201 426 -395 l26 -69
21 -999 c19 -921 22 -1000 38 -1012 9 -8 41 -26 70 -40 93 -47 198 -20 265 68
l26 33 11 395 c15 529 -1 1103 -45 1593 -14 158 -14 159 -65 264 -59 125 -116
208 -202 293 -108 107 -232 183 -393 239 -97 35 -141 68 -153 116 l-8 30
-6502 3 -6501 2 -19 -42z"/>
<path d="M2269 19962 c-185 -75 -353 -265 -388 -437 -18 -86 -31 -2351 -21
-3655 5 -652 12 -1209 15 -1239 12 -119 144 -285 276 -350 l66 -32 494 -9
c700 -13 1783 -28 3019 -42 1262 -14 5931 -14 7045 0 856 11 807 7 935 72 89
45 197 147 236 223 26 50 58 1064 74 2332 11 822 -2 2492 -20 2668 -7 71 -16
104 -47 165 -43 87 -128 180 -208 226 l-49 29 -471 8 c-528 9 -1770 25 -3065
40 -476 6 -2435 12 -4355 15 -3400 4 -3491 4 -3536 -14z m2626 -382 c2006 -16
4463 -29 6637 -36 l1987 -7 35 -36 35 -36 12 -1193 c9 -915 9 -1469 0 -2385
l-12 -1192 -37 -37 -37 -37 -2390 -12 c-2276 -11 -5815 -8 -7879 8 l-890 6
-33 31 -33 31 -10 879 c-13 1117 -13 1973 1 3075 l10 875 30 33 c16 19 29 39
29 45 0 8 172 9 628 4 345 -4 1208 -11 1917 -16z"/>
<path d="M14990 17149 c-30 -16 -58 -33 -62 -37 -4 -4 -17 -2314 -29 -5132
l-21 -5125 -31 -32 -32 -33 -2120 -10 c-2710 -13 -6800 -13 -9510 0 l-2120 10
-32 33 -32 32 -21 2140 c-12 1177 -23 2145 -25 2151 -2 7 -32 26 -66 43 -114
57 -201 34 -271 -69 l-36 -55 -20 -2105 -20 -2105 -29 -23 c-54 -45 -166 -106
-252 -138 -79 -30 -91 -38 -139 -96 -29 -35 -69 -90 -88 -124 l-34 -61 0 -518
0 -518 31 -56 c17 -31 56 -86 85 -122 47 -58 66 -72 142 -108 48 -23 131 -67
185 -97 l97 -55 0 -227 c1 -861 34 -2488 74 -3557 l12 -320 52 -109 c28 -59
72 -136 96 -171 122 -170 306 -300 528 -374 75 -25 110 -58 129 -121 l12 -40
6497 0 6498 0 6 36 c8 38 69 114 93 114 29 0 198 73 277 119 201 117 406 388
436 576 8 55 26 542 50 1385 9 320 25 1275 36 2212 l6 477 67 39 c36 22 116
64 176 95 119 59 173 107 240 211 79 123 75 93 75 611 0 518 4 488 -75 611
-61 95 -130 161 -189 180 -95 31 -271 131 -292 166 -5 7 -17 2308 -28 5115
l-21 5102 -35 36 c-79 83 -173 98 -270 44z m-1931 -10809 l2334 -8 34 -34 c32
-33 35 -40 43 -129 12 -121 12 -427 0 -548 -8 -89 -11 -96 -43 -129 l-35 -35
-6018 -20 -6019 -20 -32 -24 c-43 -31 -84 -104 -90 -158 -6 -46 24 -127 63
-172 l19 -22 5750 -21 5750 -21 32 -32 32 -32 12 -1210 c13 -1259 8 -1696 -26
-2345 -25 -477 -24 -469 -54 -525 -39 -75 -163 -194 -246 -237 -145 -75 -156
-76 -680 -88 -599 -13 -1204 -13 -1800 0 l-470 11 -36 37 -37 37 -21 342 c-20
325 -22 345 -50 421 -57 156 -153 270 -289 340 -145 75 -102 72 -947 82 -980
12 -3599 12 -4591 0 l-771 -9 -82 -30 c-164 -60 -284 -166 -355 -314 -52 -108
-62 -171 -82 -517 l-18 -315 -36 -37 -35 -38 -470 -10 c-602 -13 -1207 -13
-1804 1 -458 10 -476 11 -550 34 -194 62 -338 198 -417 393 -24 59 -24 62 -34
648 -13 750 -13 2003 0 2749 l10 580 33 32 32 32 499 21 c556 23 505 14 548
99 29 60 35 138 14 180 -9 17 -34 44 -55 59 -82 60 -83 60 -870 80 l-723 20
-30 30 c-27 27 -31 39 -40 123 -5 52 -8 214 -6 361 l4 266 39 56 38 56 846 3
c1315 5 9133 -4 11730 -13z m-2762 -4959 l642 -6 66 -65 c37 -36 70 -72 75
-81 20 -36 32 -290 20 -434 l-11 -140 -37 -37 -37 -37 -1537 -12 c-1192 -10
-1884 -10 -3075 0 l-1538 12 -38 37 -37 38 -12 143 c-9 110 -9 175 0 284 l13
141 58 60 c31 34 66 74 76 90 l19 29 2356 -8 c1295 -4 2644 -10 2997 -14z"/>
<path d="M11045 13391 c-161 -9 -256 -35 -364 -98 -89 -52 -196 -162 -255
-262 l-48 -83 -10 -291 c-11 -338 -3 -1950 11 -2046 13 -88 69 -198 143 -277
67 -72 175 -132 283 -159 159 -38 2611 -38 2770 0 108 27 216 87 283 159 74
79 130 189 143 277 14 96 22 1708 11 2045 l-10 291 -43 84 c-59 116 -165 222
-269 272 -127 60 -172 65 -626 76 -553 14 -1846 21 -2019 12z m1705 -430 c901
-46 834 -37 877 -122 l22 -44 -14 -325 c-21 -494 -34 -921 -42 -1392 l-6 -427
-36 -35 -36 -35 -460 -11 c-583 -13 -1145 -13 -1730 0 l-460 11 -57 57 -57 57
-11 385 c-13 487 -13 842 1 1335 l10 389 52 56 c29 30 63 70 76 89 l24 33 826
-5 c454 -3 914 -10 1021 -16z"/>
<path d="M2508 13311 c-14 -3 -37 -19 -49 -36 -13 -16 -27 -33 -33 -36 -5 -4
-18 -176 -30 -383 l-21 -376 -60 -37 c-91 -56 -203 -144 -267 -210 -61 -62
-98 -134 -142 -271 -123 -391 5 -702 389 -940 l80 -49 21 -356 c21 -344 22
-356 45 -385 41 -51 98 -82 149 -82 53 0 145 48 160 83 24 57 68 398 77 595
l6 142 107 89 c335 280 461 552 383 831 -48 176 -208 377 -434 548 l-56 42 -6
143 c-7 156 -16 243 -48 450 -18 111 -26 144 -45 167 -41 48 -158 85 -226 71z
m121 -1230 c117 -36 199 -106 259 -219 27 -52 29 -62 22 -114 -26 -182 -102
-294 -224 -328 -58 -16 -179 -9 -264 16 -56 15 -66 23 -87 58 -36 61 -72 163
-90 255 l-17 81 55 76 c30 42 77 103 104 135 l48 59 67 0 c37 0 93 -8 127 -19z"/>
<path d="M5111 13237 c-36 -87 -57 -172 -66 -272 l-7 -70 -79 -44 c-168 -94
-291 -215 -361 -356 -54 -109 -63 -153 -63 -310 1 -119 5 -154 27 -235 44
-160 59 -185 172 -295 92 -90 199 -182 280 -241 l29 -21 19 -549 c11 -302 21
-559 24 -571 6 -30 95 -100 143 -113 55 -14 95 -3 145 42 89 78 82 36 106 643
l20 540 47 40 c152 129 215 190 280 270 122 150 192 319 193 463 0 71 -26 192
-56 260 -62 140 -206 313 -380 455 l-81 66 -5 88 c-6 95 -33 166 -80 210 -41
39 -118 66 -199 71 l-76 4 -32 -75z m347 -787 c91 -39 142 -122 142 -227 0
-46 -35 -193 -54 -231 -18 -35 -121 -108 -195 -139 -149 -61 -299 1 -417 173
-37 54 -37 54 -25 108 26 119 111 249 206 318 l40 30 125 -4 c103 -4 134 -8
178 -28z"/>
<path d="M7783 13244 l-33 -69 -20 -555 c-16 -446 -23 -557 -34 -565 -8 -5
-55 -38 -104 -73 -169 -119 -301 -280 -353 -432 -33 -99 -38 -258 -10 -375 24
-101 94 -255 164 -360 38 -59 53 -73 92 -87 183 -68 305 -245 305 -444 0 -60
2 -64 38 -94 71 -58 130 -60 213 -6 35 24 36 26 47 118 24 212 106 332 287
418 75 36 84 44 146 127 75 101 81 114 115 238 35 125 43 312 20 419 -45 202
-191 383 -417 517 l-67 40 -6 92 c-3 51 -13 304 -22 562 l-16 470 -26 48 c-14
27 -35 53 -46 59 -11 6 -70 13 -130 16 l-111 5 -32 -69z m227 -1610 c143 -33
225 -117 265 -269 8 -32 15 -86 15 -120 l-1 -60 -65 -44 c-36 -24 -100 -78
-142 -120 l-77 -76 -66 0 -67 0 -88 85 c-49 47 -114 102 -145 122 -55 36 -57
40 -67 98 -7 39 -8 80 -2 116 8 51 16 64 72 123 35 37 82 88 104 114 l41 47
79 0 c44 0 108 -7 144 -16z"/>
<path d="M2512 9319 c-160 -13 -244 -32 -342 -80 -68 -34 -102 -59 -170 -128
l-85 -86 -32 -120 c-171 -643 -93 -1043 235 -1213 128 -67 206 -84 418 -89
198 -6 314 4 511 42 205 40 326 122 398 269 55 112 115 446 115 636 0 475
-235 727 -717 769 -132 12 -169 12 -331 0z m332 -379 c105 -27 189 -73 261
-145 154 -153 187 -362 87 -549 -40 -75 -145 -176 -223 -213 -170 -83 -375
-83 -549 0 -77 37 -182 138 -222 213 -100 187 -67 396 87 549 142 141 357 197
559 145z"/>
<path d="M5030 9309 c-164 -19 -273 -69 -375 -173 -154 -155 -199 -315 -200
-716 0 -264 11 -330 81 -478 81 -173 233 -291 434 -337 98 -23 308 -30 440
-16 171 19 389 66 445 97 78 43 177 148 219 232 79 157 135 513 115 736 -18
206 -69 328 -188 447 -114 114 -258 179 -466 209 -83 12 -399 11 -505 -1z
m414 -369 c43 -11 105 -34 139 -52 75 -40 173 -135 209 -204 100 -187 67 -396
-87 -549 -177 -176 -468 -215 -698 -93 -75 40 -173 135 -209 204 -100 187 -67
396 87 549 142 141 357 197 559 145z"/>
<path d="M7656 9309 c-239 -25 -392 -132 -501 -349 -44 -88 -65 -232 -72 -485
-4 -198 -3 -230 16 -325 51 -248 186 -424 387 -504 195 -79 456 -83 799 -15
178 35 223 58 326 166 115 122 168 260 204 536 74 573 -142 896 -649 972 -112
16 -373 18 -510 4z m458 -369 c43 -11 105 -34 139 -52 75 -40 173 -135 209
-204 100 -187 67 -396 -87 -549 -177 -176 -468 -215 -698 -93 -75 40 -173 135
-209 204 -100 187 -67 396 87 549 142 141 357 197 559 145z"/>
<path d="M10415 8814 c-48 -59 -54 -96 -54 -359 0 -231 9 -313 41 -337 47 -36
93 -52 153 -52 76 0 95 11 127 71 92 169 111 368 53 567 -27 92 -98 142 -216
152 l-64 6 -40 -48z"/>
<path d="M11516 8833 c-20 -40 -53 -183 -67 -288 -12 -94 -7 -325 9 -380 6
-21 24 -39 61 -62 63 -38 130 -49 204 -33 l55 11 26 82 c40 128 49 204 44 366
-5 161 -14 193 -69 256 -47 53 -99 75 -181 75 -64 0 -68 -2 -82 -27z"/>
<path d="M12623 8828 c-18 -18 -43 -58 -57 -88 -55 -121 -56 -447 -1 -567 61
-133 250 -152 329 -33 30 46 46 154 46 320 0 165 -16 268 -48 314 -39 56 -100
86 -177 86 -56 0 -64 -3 -92 -32z"/>
<path d="M13720 8829 c-13 -19 -29 -39 -37 -45 -29 -25 -44 -371 -23 -554 9
-80 11 -87 45 -116 42 -38 111 -59 162 -51 58 10 132 65 140 107 5 19 8 157 8
305 0 239 -2 274 -17 297 -25 38 -113 77 -189 84 l-66 7 -23 -34z"/>
</g>
</svg>
