<?xml version="1.0" encoding="UTF-8"?>
<!DOCTYPE svg PUBLIC "-//W3C//DTD SVG 1.1//EN" "http://www.w3.org/Graphics/SVG/1.1/DTD/svg11.dtd">
<svg xmlns="http://www.w3.org/2000/svg" version="1.1" width="1067px" height="1067px" style="shape-rendering:geometricPrecision; text-rendering:geometricPrecision; image-rendering:optimizeQuality; fill-rule:evenodd; clip-rule:evenodd" xmlns:xlink="http://www.w3.org/1999/xlink">
<g><path style="opacity:0.99" fill="#000000" d="M 1066.5,552.5 C 1066.5,672.833 1066.5,793.167 1066.5,913.5C 1065.7,942.021 1064.53,970.687 1063,999.5C 1062.55,1005.52 1060.88,1011.19 1058,1016.5C 1030.81,1061.12 992.314,1075.29 942.5,1059C 907.129,1042.13 888.963,1013.96 888,974.5C 887.147,960.829 886.314,947.163 885.5,933.5C 793.498,933.167 701.498,933.5 609.5,934.5C 591.703,962.152 566.203,975.486 533,974.5C 499.797,975.486 474.297,962.152 456.5,934.5C 364.502,933.5 272.502,933.167 180.5,933.5C 179.705,954.925 177.872,976.258 175,997.5C 167.133,1028.37 148.3,1049.54 118.5,1061C 111.491,1063.33 104.491,1065.17 97.5,1066.5C 91.8333,1066.5 86.1667,1066.5 80.5,1066.5C 48.2154,1061.61 24.0488,1044.94 8,1016.5C 5.93442,1011.64 4.26776,1006.64 3,1001.5C 1.24733,978.709 0.0806585,956.042 -0.5,933.5C -0.5,851.167 -0.5,768.833 -0.5,686.5C 0.0605534,610.323 0.893887,533.99 2,457.5C 13.0404,438.461 27.5404,422.628 45.5,410C 58.1915,402.661 71.8582,399.828 86.5,401.5C 119.926,400.797 145.76,414.463 164,442.5C 172.138,455.943 177.305,470.443 179.5,486C 223.499,486.5 267.499,486.667 311.5,486.5C 311.333,455.165 311.5,423.832 312,392.5C 311.997,382.516 313.664,372.849 317,363.5C 321.123,357.352 326.957,354.185 334.5,354C 349.163,353.5 363.83,353.333 378.5,353.5C 373.526,300.28 397.526,270.113 450.5,263C 458.509,259.824 463.342,253.99 465,245.5C 465.5,237.173 465.666,228.84 465.5,220.5C 394.499,220.667 323.499,220.5 252.5,220C 205.481,221.647 180.814,198.981 178.5,152C 178.544,128.237 188.877,110.57 209.5,99C 227.621,89.4985 246.954,85.4985 267.5,87C 333.499,86.5 399.499,86.3333 465.5,86.5C 463.029,64.0049 467.862,43.3382 480,24.5C 498.16,3.22475 520.994,-4.27525 548.5,2C 573.786,7.95175 589.952,23.4517 597,48.5C 599.269,61.063 600.436,73.7297 600.5,86.5C 666.501,86.3333 732.501,86.5 798.5,87C 829.157,83.8805 854.99,93.3805 876,115.5C 883.733,126.201 887.566,138.201 887.5,151.5C 888.092,174.132 880.092,192.966 863.5,208C 857.824,212.338 851.49,215.338 844.5,217C 834.248,218.78 823.914,219.78 813.5,220C 742.501,220.5 671.501,220.667 600.5,220.5C 600.334,228.84 600.5,237.173 601,245.5C 602.658,253.99 607.491,259.824 615.5,263C 668.474,270.113 692.474,300.28 687.5,353.5C 702.17,353.333 716.837,353.5 731.5,354C 743.402,354.57 750.236,360.736 752,372.5C 752.998,379.467 753.664,386.467 754,393.5C 754.5,424.498 754.667,455.498 754.5,486.5C 798.501,486.667 842.501,486.5 886.5,486C 892.083,443.823 915.083,416.156 955.5,403C 1004.14,394.401 1039.3,412.235 1061,456.5C 1062.84,465.052 1063.84,473.718 1064,482.5C 1064.77,505.997 1065.61,529.33 1066.5,552.5 Z M 529.5,45.5 C 536.721,45.3066 543.221,47.3066 549,51.5C 551.264,55.8873 552.597,60.5539 553,65.5C 553.5,72.4921 553.666,79.4921 553.5,86.5C 539.833,86.5 526.167,86.5 512.5,86.5C 511.945,76.0282 512.778,65.6949 515,55.5C 518.305,49.7778 523.138,46.4444 529.5,45.5 Z M 233.5,133.5 C 433.167,133.333 632.834,133.5 832.5,134C 838.222,140.39 842.222,147.724 844.5,156C 842.078,166.755 835.411,173.088 824.5,175C 815.193,176.016 805.86,176.683 796.5,177C 620.833,179 445.167,179 269.5,177C 258.417,176.838 247.417,175.838 236.5,174C 226.387,170.247 221.554,163.08 222,152.5C 225.342,145.806 229.175,139.473 233.5,133.5 Z M 523.5,220.5 C 529.842,220.334 536.175,220.5 542.5,221C 545.903,221.1 549.07,221.934 552,223.5C 551.204,246.222 557.204,266.888 570,285.5C 579.274,297.219 591.107,305.052 605.5,309C 616.336,309.945 626.336,313.279 635.5,319C 638.614,322.06 641.114,325.56 643,329.5C 644.927,337.383 645.76,345.383 645.5,353.5C 570.5,353.5 495.5,353.5 420.5,353.5C 420.24,345.383 421.073,337.383 423,329.5C 426.23,321.937 431.73,316.771 439.5,314C 446.319,311.586 453.319,309.919 460.5,309C 486.236,300.263 502.736,282.763 510,256.5C 511.717,245.526 513.05,234.526 514,223.5C 517.134,222.091 520.301,221.091 523.5,220.5 Z M 354.5,400.5 C 473.5,400.5 592.5,400.5 711.5,400.5C 711.5,429.167 711.5,457.833 711.5,486.5C 592.5,486.5 473.5,486.5 354.5,486.5C 354.5,457.833 354.5,429.167 354.5,400.5 Z M 84.5,445.5 C 113.799,446.299 128.966,461.299 130,490.5C 131.104,517.821 131.77,545.154 132,572.5C 132.667,679.167 132.667,785.833 132,892.5C 131.774,920.179 131.107,947.846 130,975.5C 129.532,1002.8 115.699,1017.8 88.5,1020.5C 79.4648,1020.32 71.1315,1017.82 63.5,1013C 57.3647,1007.87 51.5313,1002.37 46,996.5C 45.3333,820.833 45.3333,645.167 46,469.5C 51.9037,462.926 58.4037,457.092 65.5,452C 71.5905,448.738 77.9238,446.571 84.5,445.5 Z M 972.5,445.5 C 982.466,444.994 991.8,447.16 1000.5,452C 1007.6,457.092 1014.1,462.926 1020,469.5C 1020.67,645.167 1020.67,820.833 1020,996.5C 1012.55,1005.96 1003.39,1013.12 992.5,1018C 970.27,1023.96 952.77,1017.46 940,998.5C 937.696,991.009 936.363,983.342 936,975.5C 934.896,948.179 934.23,920.846 934,893.5C 933.333,786.5 933.333,679.5 934,572.5C 934.23,545.154 934.896,517.821 936,490.5C 935.912,465.432 948.079,450.432 972.5,445.5 Z M 179.5,533.5 C 267.833,533.5 356.167,533.5 444.5,533.5C 444.5,651.167 444.5,768.833 444.5,886.5C 356.167,886.5 267.833,886.5 179.5,886.5C 179.5,768.833 179.5,651.167 179.5,533.5 Z M 487.5,533.5 C 517.833,533.5 548.167,533.5 578.5,533.5C 578.667,628.834 578.5,724.167 578,819.5C 577.888,842.875 576.888,866.208 575,889.5C 574.341,899.147 571.674,908.147 567,916.5C 548.477,934.61 528.31,936.776 506.5,923C 500.004,918.847 495.838,913.013 494,905.5C 492.615,900.239 491.615,894.906 491,889.5C 489.112,866.208 488.112,842.875 488,819.5C 487.5,724.167 487.333,628.834 487.5,533.5 Z M 621.5,533.5 C 709.833,533.5 798.167,533.5 886.5,533.5C 886.5,651.167 886.5,768.833 886.5,886.5C 798.167,886.5 709.833,886.5 621.5,886.5C 621.5,768.833 621.5,651.167 621.5,533.5 Z"/></g>
</svg>
